<svg id="SvgjsSvg1006" width="1713" height="473.16445182724243" xmlns="http://www.w3.org/2000/svg" version="1.1" xmlns:xlink="http://www.w3.org/1999/xlink" xmlns:svgjs="http://svgjs.com/svgjs"><defs id="SvgjsDefs1007"><pattern patternUnits="userSpaceOnUse" id="pattern_mark_0" width="300" height="300"><text x="150" y="100" fill="rgba(229,229,229,0.8)" font-size="18" transform="rotate(-45, 150, 150)" style="dominant-baseline: middle; text-anchor: middle;"></text></pattern><pattern patternUnits="userSpaceOnUse" id="pattern_mark_1" width="300" height="300"><text x="150" y="200" fill="rgba(229,229,229,0.8)" font-size="18" transform="rotate(-45, 150, 150)" style="dominant-baseline: middle; text-anchor: middle;"></text></pattern><marker id="SvgjsMarker1036" markerWidth="13" markerHeight="9" refX="9.5" refY="4.5" viewBox="0 0 13 9" orient="auto" markerUnits="userSpaceOnUse" stroke-dasharray="0,0"><path id="SvgjsPath1037" d="M0,0 L13,4.5 L0,9 L0,0" fill="#323232" stroke="#323232" stroke-width="1"></path></marker><marker id="SvgjsMarker1056" markerWidth="13" markerHeight="9" refX="9.5" refY="4.5" viewBox="0 0 13 9" orient="auto" markerUnits="userSpaceOnUse" stroke-dasharray="0,0"><path id="SvgjsPath1057" d="M0,0 L13,4.5 L0,9 L0,0" fill="#323232" stroke="#323232" stroke-width="1"></path></marker><marker id="SvgjsMarker1070" markerWidth="13" markerHeight="9" refX="9.5" refY="4.5" viewBox="0 0 13 9" orient="auto" markerUnits="userSpaceOnUse" stroke-dasharray="0,0"><path id="SvgjsPath1071" d="M0,0 L13,4.5 L0,9 L0,0" fill="#323232" stroke="#323232" stroke-width="1"></path></marker><marker id="SvgjsMarker1082" markerWidth="13" markerHeight="9" refX="9.5" refY="4.5" viewBox="0 0 13 9" orient="auto" markerUnits="userSpaceOnUse" stroke-dasharray="0,0"><path id="SvgjsPath1083" d="M0,0 L13,4.5 L0,9 L0,0" fill="#323232" stroke="#323232" stroke-width="1"></path></marker><marker id="SvgjsMarker1102" markerWidth="13" markerHeight="9" refX="9.5" refY="4.5" viewBox="0 0 13 9" orient="auto" markerUnits="userSpaceOnUse" stroke-dasharray="0,0"><path id="SvgjsPath1103" d="M0,0 L13,4.5 L0,9 L0,0" fill="#323232" stroke="#323232" stroke-width="1"></path></marker><marker id="SvgjsMarker1110" markerWidth="13" markerHeight="9" refX="9.5" refY="4.5" viewBox="0 0 13 9" orient="auto" markerUnits="userSpaceOnUse" stroke-dasharray="0,0"><path id="SvgjsPath1111" d="M0,0 L13,4.5 L0,9 L0,0" fill="#323232" stroke="#323232" stroke-width="1"></path></marker><marker id="SvgjsMarker1124" markerWidth="13" markerHeight="9" refX="9.5" refY="4.5" viewBox="0 0 13 9" orient="auto" markerUnits="userSpaceOnUse" stroke-dasharray="0,0"><path id="SvgjsPath1125" d="M0,0 L13,4.5 L0,9 L0,0" fill="#323232" stroke="#323232" stroke-width="1"></path></marker><marker id="SvgjsMarker1148" markerWidth="13" markerHeight="9" refX="9.5" refY="4.5" viewBox="0 0 13 9" orient="auto" markerUnits="userSpaceOnUse" stroke-dasharray="0,0"><path id="SvgjsPath1149" d="M0,0 L13,4.5 L0,9 L0,0" fill="#323232" stroke="#323232" stroke-width="1"></path></marker><marker id="SvgjsMarker1170" markerWidth="13" markerHeight="9" refX="9.5" refY="4.5" viewBox="0 0 13 9" orient="auto" markerUnits="userSpaceOnUse" stroke-dasharray="0,0"><path id="SvgjsPath1171" d="M0,0 L13,4.5 L0,9 L0,0" fill="#323232" stroke="#323232" stroke-width="1"></path></marker><marker id="SvgjsMarker1178" markerWidth="13" markerHeight="9" refX="9.5" refY="4.5" viewBox="0 0 13 9" orient="auto" markerUnits="userSpaceOnUse" stroke-dasharray="0,0"><path id="SvgjsPath1179" d="M0,0 L13,4.5 L0,9 L0,0" fill="#323232" stroke="#323232" stroke-width="1"></path></marker><marker id="SvgjsMarker1210" markerWidth="13" markerHeight="9" refX="9.5" refY="4.5" viewBox="0 0 13 9" orient="auto" markerUnits="userSpaceOnUse" stroke-dasharray="0,0"><path id="SvgjsPath1211" d="M0,0 L13,4.5 L0,9 L0,0" fill="#323232" stroke="#323232" stroke-width="1"></path></marker><marker id="SvgjsMarker1214" markerWidth="13" markerHeight="9" refX="9.5" refY="4.5" viewBox="0 0 13 9" orient="auto" markerUnits="userSpaceOnUse" stroke-dasharray="0,0"><path id="SvgjsPath1215" d="M0,0 L13,4.5 L0,9 L0,0" fill="#323232" stroke="#323232" stroke-width="1"></path></marker><marker id="SvgjsMarker1224" markerWidth="13" markerHeight="9" refX="9.5" refY="4.5" viewBox="0 0 13 9" orient="auto" markerUnits="userSpaceOnUse" stroke-dasharray="0,0"><path id="SvgjsPath1225" d="M0,0 L13,4.5 L0,9 L0,0" fill="#323232" stroke="#323232" stroke-width="1"></path></marker><marker id="SvgjsMarker1228" markerWidth="13" markerHeight="9" refX="9.5" refY="4.5" viewBox="0 0 13 9" orient="auto" markerUnits="userSpaceOnUse" stroke-dasharray="0,0"><path id="SvgjsPath1229" d="M0,0 L13,4.5 L0,9 L0,0" fill="#323232" stroke="#323232" stroke-width="1"></path></marker><marker id="SvgjsMarker1242" markerWidth="13" markerHeight="9" refX="9.5" refY="4.5" viewBox="0 0 13 9" orient="auto" markerUnits="userSpaceOnUse" stroke-dasharray="0,0"><path id="SvgjsPath1243" d="M0,0 L13,4.5 L0,9 L0,0" fill="#323232" stroke="#323232" stroke-width="1"></path></marker></defs><rect id="svgbackgroundid" width="1713" height="473.16445182724243" fill="transparent"></rect><rect id="SvgjsRect1009" width="1713" height="473.16445182724243" fill="url(#pattern_mark_0)"></rect><rect id="SvgjsRect1010" width="1713" height="473.16445182724243" fill="url(#pattern_mark_1)"></rect><g id="SvgjsG1011" transform="translate(530.2930141715119,25)"><path id="SvgjsPath1012" d="M 0 4Q 0 0 4 0L 1153.707 0Q 1157.707 0 1157.707 4L 1157.707 336.164Q 1157.707 340.164 1153.707 340.164L 4 340.164Q 0 340.164 0 336.164Z" stroke="rgba(33,41,48,1)" stroke-width="1.5" fill-opacity="1" fill="#ffffff"></path><g id="SvgjsG1013"><text id="SvgjsText1014" font-family="&quot;Microsoft YaHei&quot;, 微软雅黑, Arial" text-anchor="middle" font-size="13px" width="1148px" fill="#323232" font-weight="400" align="middle" lineHeight="125%" anchor="middle" family="&quot;Microsoft YaHei&quot;, 微软雅黑, Arial" size="13px" weight="400" font-style="" opacity="1" y="14.6725" transform="rotate(0)"></text></g></g><g id="SvgjsG1015" transform="translate(975.1860465116279,56.582225913621244)"><path id="SvgjsPath1016" d="M 0 0L 697.814 0L 697.814 293L 0 293Z" stroke="rgba(33,41,48,1)" stroke-width="1.5" fill-opacity="1" fill="#ffffff"></path><g id="SvgjsG1017"><text id="SvgjsText1018" font-family="&quot;Microsoft YaHei&quot;, 微软雅黑, Arial" text-anchor="middle" font-size="13px" width="678px" fill="#323232" font-weight="400" align="middle" lineHeight="125%" anchor="middle" family="&quot;Microsoft YaHei&quot;, 微软雅黑, Arial" size="13px" weight="400" font-style="" opacity="1" y="135.875" transform="rotate(0)"></text></g></g><g id="SvgjsG1019" transform="translate(993.25,109.08222591362124)"><path id="SvgjsPath1020" d="M 0 4Q 0 0 4 0L 213 0Q 217 0 217 4L 217 199Q 217 203 213 203L 4 203Q 0 203 0 199Z" stroke="rgba(33,41,48,1)" stroke-width="1.5" fill-opacity="1" fill="#ffffff"></path><g id="SvgjsG1021"><text id="SvgjsText1022" font-family="&quot;Microsoft YaHei&quot;, 微软雅黑, Arial" text-anchor="middle" font-size="13px" width="207px" fill="#323232" font-weight="400" align="middle" lineHeight="125%" anchor="middle" family="&quot;Microsoft YaHei&quot;, 微软雅黑, Arial" size="13px" weight="400" font-style="" opacity="1" y="4.875" transform="rotate(0)"></text></g></g><g id="SvgjsG1023" transform="translate(1235.203488372093,109.08222591362124)"><path id="SvgjsPath1024" d="M 0 4Q 0 0 4 0L 164.907 0Q 168.907 0 168.907 4L 168.907 199Q 168.907 203 164.907 203L 4 203Q 0 203 0 199Z" stroke="rgba(33,41,48,1)" stroke-width="1.5" fill-opacity="1" fill="#ffffff"></path><g id="SvgjsG1025"><text id="SvgjsText1026" font-family="&quot;Microsoft YaHei&quot;, 微软雅黑, Arial" text-anchor="middle" font-size="13px" width="159px" fill="#323232" font-weight="400" align="middle" lineHeight="125%" anchor="middle" family="&quot;Microsoft YaHei&quot;, 微软雅黑, Arial" size="13px" weight="400" font-style="" opacity="1" y="4.875" transform="rotate(0)"></text></g></g><g id="SvgjsG1027" transform="translate(45,62.582225913621244)"><path id="SvgjsPath1028" d="M 18.333 9C 18.333 -3 36.667 -3 36.667 9C 36.667 21 18.333 21 18.333 9M 27.5 18L 27.5 54M 27.5 54L 4.583 72M 27.5 54L 50.417 72M 0 36L 55 36" stroke="rgba(33,41,48,1)" stroke-width="1.5" fill-opacity="1" fill="#ffffff"></path><path id="SvgjsPath1029" d="M 0 0L 55 0L 55 72L 0 72Z" stroke="none" fill="none"></path><g id="SvgjsG1030"><text id="SvgjsText1031" font-family="&quot;Microsoft YaHei&quot;, 微软雅黑, Arial" text-anchor="middle" font-size="13px" width="95px" fill="#323232" font-weight="400" align="middle" lineHeight="125%" anchor="middle" family="&quot;Microsoft YaHei&quot;, 微软雅黑, Arial" size="13px" weight="400" font-style="" opacity="1" y="76.375" transform="rotate(0)"><tspan id="SvgjsTspan1032" dy="16.25" x="27.5"><tspan id="SvgjsTspan1033" style="">User</tspan></tspan></text></g></g><g id="SvgjsG1034"><path id="SvgjsPath1035" d="M100.75 98.58222591362124L135 98.58222591362124L135 103.08222591362124L167.3 103.08222591362124" stroke="#323232" stroke-width="1.5" fill="none" marker-end="url(#SvgjsMarker1036)"></path><rect id="SvgjsRect1038" width="27" height="18" x="115.2224409448819" y="89.58222591362124" fill="#ffffff"></rect><text id="SvgjsText1039" font-family="&quot;Microsoft YaHei&quot;, 微软雅黑, Arial" text-anchor="middle" font-size="13px" width="27px" fill="#323232" font-weight="400" align="top" lineHeight="16px" anchor="middle" family="&quot;Microsoft YaHei&quot;, 微软雅黑, Arial" size="13px" weight="400" font-style="" opacity="1" y="86.95722591362124" transform="rotate(0)"><tspan id="SvgjsTspan1040" dy="16.25" x="128.7224409448819"><tspan id="SvgjsTspan1041" style="">click</tspan></tspan></text></g><g id="SvgjsG1042" transform="translate(170,179.33222591362124)"><path id="SvgjsPath1043" d="M 0 50.25L 65.5 0L 131 50.25L 65.5 100.5Z" stroke="rgba(33,41,48,1)" stroke-width="1.5" fill-opacity="1" fill="#ffffff"></path><g id="SvgjsG1044"><text id="SvgjsText1045" font-family="&quot;Microsoft YaHei&quot;, 微软雅黑, Arial" text-anchor="middle" font-size="13px" width="111px" fill="#323232" font-weight="400" align="middle" lineHeight="125%" anchor="middle" family="&quot;Microsoft YaHei&quot;, 微软雅黑, Arial" size="13px" weight="400" font-style="" opacity="1" y="40.1275" transform="rotate(0)"><tspan id="SvgjsTspan1046" dy="16.25" x="65.5"><tspan id="SvgjsTspan1047" style="">Order Behavior</tspan></tspan></text></g></g><g id="SvgjsG1048" transform="translate(389,141.08222591362124)"><path id="SvgjsPath1049" d="M 0 0L 96 0L 96 54L 0 54Z" stroke="rgba(33,41,48,1)" stroke-width="1.5" fill-opacity="1" fill="#ffffff"></path><g id="SvgjsG1050"><text id="SvgjsText1051" font-family="&quot;Microsoft YaHei&quot;, 微软雅黑, Arial" text-anchor="middle" font-size="13px" width="76px" fill="#323232" font-weight="400" align="middle" lineHeight="125%" anchor="middle" family="&quot;Microsoft YaHei&quot;, 微软雅黑, Arial" size="13px" weight="400" font-style="" opacity="1" y="16.375" transform="rotate(0)"><tspan id="SvgjsTspan1052" dy="16.25" x="48"><tspan id="SvgjsTspan1053" style="">Kafka</tspan></tspan></text></g></g><g id="SvgjsG1054"><path id="SvgjsPath1055" d="M301.75 229.58222591362124L345 229.58222591362124L345 168.08222591362124L386.3 168.08222591362124" stroke="#323232" stroke-width="1.5" fill="none" marker-end="url(#SvgjsMarker1056)"></path><rect id="SvgjsRect1058" width="20" height="18" x="335" y="180.7937643751597" fill="#ffffff"></rect><text id="SvgjsText1059" font-family="&quot;Microsoft YaHei&quot;, 微软雅黑, Arial" text-anchor="middle" font-size="13px" width="20px" fill="#323232" font-weight="400" align="top" lineHeight="16px" anchor="middle" family="&quot;Microsoft YaHei&quot;, 微软雅黑, Arial" size="13px" weight="400" font-style="" opacity="1" y="178.1687643751597" transform="rotate(0)"><tspan id="SvgjsTspan1060" dy="16.25" x="345"><tspan id="SvgjsTspan1061" style="">yes</tspan></tspan></text></g><g id="SvgjsG1062" transform="translate(389,264.08222591362124)"><path id="SvgjsPath1063" d="M 0 0L 96 0L 96 54L 0 54Z" stroke="rgba(33,41,48,1)" stroke-width="1.5" fill-opacity="1" fill="#ffffff"></path><g id="SvgjsG1064"><text id="SvgjsText1065" font-family="&quot;Microsoft YaHei&quot;, 微软雅黑, Arial" text-anchor="middle" font-size="13px" width="76px" fill="#323232" font-weight="400" align="middle" lineHeight="125%" anchor="middle" family="&quot;Microsoft YaHei&quot;, 微软雅黑, Arial" size="13px" weight="400" font-style="" opacity="1" y="16.375" transform="rotate(0)"><tspan id="SvgjsTspan1066" dy="16.25" x="48"><tspan id="SvgjsTspan1067" style="">Kafka</tspan></tspan></text></g></g><g id="SvgjsG1068"><path id="SvgjsPath1069" d="M301.75 229.58222591362124L345 229.58222591362124L345 291.08222591362124L386.3 291.08222591362124" stroke="#323232" stroke-width="1.5" fill="none" marker-end="url(#SvgjsMarker1070)"></path><rect id="SvgjsRect1072" width="16" height="18" x="342.1538461538462" y="282.08222591362124" fill="#ffffff"></rect><text id="SvgjsText1073" font-family="&quot;Microsoft YaHei&quot;, 微软雅黑, Arial" text-anchor="middle" font-size="13px" width="16px" fill="#323232" font-weight="400" align="top" lineHeight="16px" anchor="middle" family="&quot;Microsoft YaHei&quot;, 微软雅黑, Arial" size="13px" weight="400" font-style="" opacity="1" y="279.45722591362124" transform="rotate(0)"><tspan id="SvgjsTspan1074" dy="16.25" x="350.1538461538462"><tspan id="SvgjsTspan1075" style="">no</tspan></tspan></text></g><g id="SvgjsG1076" transform="translate(718.0930232558139,117.08222591362124)"><path id="SvgjsPath1077" d="M 0 3.9999999999999996Q 0 0 3.9999999999999996 0L 222.203 0Q 226.203 0 226.203 3.9999999999999996L 226.203 183Q 226.203 187 222.203 187L 3.9999999999999996 187Q 0 187 0 183Z" stroke="rgba(33,41,48,1)" stroke-width="1.5" fill-opacity="1" fill="#ffffff"></path><g id="SvgjsG1078"><text id="SvgjsText1079" font-family="&quot;Microsoft YaHei&quot;, 微软雅黑, Arial" text-anchor="middle" font-size="13px" width="217px" fill="#323232" font-weight="400" align="middle" lineHeight="125%" anchor="middle" family="&quot;Microsoft YaHei&quot;, 微软雅黑, Arial" size="13px" weight="400" font-style="" opacity="1" y="3.7319999999999993" transform="rotate(0)"></text></g></g><g id="SvgjsG1080"><path id="SvgjsPath1081" d="M235.5 133.08222591362124L235.5 156.20722591362124L235.5 156.20722591362124L235.5 176.6322259136212" stroke="#323232" stroke-width="1.5" fill="none" marker-end="url(#SvgjsMarker1082)"></path></g><g id="SvgjsG1084" transform="translate(599.3982558139535,195.08222591362124)"><path id="SvgjsPath1085" d="M 10 0L 100 0L 100 70L 10 70L 10 56L 0 56L 0 42L 10 42L 10 28L 0 28L 0 14L 10 14L 10 0Z" stroke="rgba(0,0,0,1)" stroke-width="1.5" fill-opacity="1" fill="#ffffff"></path><path id="SvgjsPath1086" d="M 10 56L 20 56L 20 42L 10 42M 10 28L 20 28L 20 14L 10 14" stroke="rgba(0,0,0,1)" stroke-width="1.5" fill="none"></path><path id="SvgjsPath1087" d="M 10 0L 100 0L 100 70L 10 70L 10 56L 0 56L 0 42L 10 42L 10 28L 0 28L 0 14L 10 14L 10 0Z" stroke="none" fill="none"></path><g id="SvgjsG1088"><text id="SvgjsText1089" font-family="&quot;Microsoft YaHei&quot;, 微软雅黑, Arial" text-anchor="middle" font-size="13px" width="78px" fill="#323232" font-weight="700" align="middle" lineHeight="125%" anchor="middle" family="&quot;Microsoft YaHei&quot;, 微软雅黑, Arial" size="13px" weight="700" font-style="" opacity="1" y="15.875" transform="rotate(0)"><tspan id="SvgjsTspan1090" dy="16.25" x="56.5"><tspan id="SvgjsTspan1091" style="">Data </tspan></tspan><tspan id="SvgjsTspan1092" dy="16.25" x="56.5"><tspan id="SvgjsTspan1093" style="">Ingestion</tspan></tspan></text></g></g><g id="SvgjsG1094" transform="translate(558.0930232558139,43.082225913621244)"><path id="SvgjsPath1095" d="M 0 0L 160 0L 160 40L 0 40Z" stroke="none" fill="none"></path><g id="SvgjsG1096"><text id="SvgjsText1097" font-family="&quot;Microsoft YaHei&quot;, 微软雅黑, Arial" text-anchor="middle" font-size="15px" width="160px" fill="#323232" font-weight="400" align="middle" lineHeight="125%" anchor="middle" family="&quot;Microsoft YaHei&quot;, 微软雅黑, Arial" size="15px" weight="400" font-style="" opacity="1" y="7.625" transform="rotate(0)"><tspan id="SvgjsTspan1098" dy="18.75" x="80"><tspan id="SvgjsTspan1099" style="font-weight: bold;"> RisingWave Database</tspan></tspan></text></g></g><g id="SvgjsG1100"><path id="SvgjsPath1101" d="M485.75 168.08222591362124L542.1991279069767 168.08222591362124L542.1991279069767 216.08222591362124L596.6982558139534 216.08222591362124" stroke="#323232" stroke-width="1.5" fill="none" marker-end="url(#SvgjsMarker1102)"></path><rect id="SvgjsRect1104" width="87" height="18" x="498.69912790697674" y="198.08222591362124" fill="#ffffff"></rect><text id="SvgjsText1105" font-family="&quot;Microsoft YaHei&quot;, 微软雅黑, Arial" text-anchor="middle" font-size="13px" width="87px" fill="#323232" font-weight="400" align="top" lineHeight="16px" anchor="middle" family="&quot;Microsoft YaHei&quot;, 微软雅黑, Arial" size="13px" weight="400" font-style="" opacity="1" y="195.45722591362124" transform="rotate(0)"><tspan id="SvgjsTspan1106" dy="16.25" x="542.1991279069767"><tspan id="SvgjsTspan1107" style="">Click Behavior</tspan></tspan></text></g><g id="SvgjsG1108"><path id="SvgjsPath1109" d="M485.75 291.08222591362124L542.1991279069767 291.08222591362124L542.1991279069767 244.08222591362124L596.6982558139534 244.08222591362124" stroke="#323232" stroke-width="1.5" fill="none" marker-end="url(#SvgjsMarker1110)"></path><rect id="SvgjsRect1112" width="94" height="18" x="496.5115982439487" y="235.08222591362124" fill="#ffffff"></rect><text id="SvgjsText1113" font-family="&quot;Microsoft YaHei&quot;, 微软雅黑, Arial" text-anchor="middle" font-size="13px" width="94px" fill="#323232" font-weight="400" align="top" lineHeight="16px" anchor="middle" family="&quot;Microsoft YaHei&quot;, 微软雅黑, Arial" size="13px" weight="400" font-style="" opacity="1" y="232.45722591362124" transform="rotate(0)"><tspan id="SvgjsTspan1114" dy="16.25" x="543.5115982439487"><tspan id="SvgjsTspan1115" style="">Order Behavior</tspan></tspan></text></g><g id="SvgjsG1116" transform="translate(786,173.08222591362124)"><path id="SvgjsPath1117" d="M 0 0L 108 0L 108 54L 0 54Z" stroke="rgba(33,41,48,1)" stroke-width="1.5" fill-opacity="1" fill="#ffffff"></path><g id="SvgjsG1118"><text id="SvgjsText1119" font-family="&quot;Microsoft YaHei&quot;, 微软雅黑, Arial" text-anchor="middle" font-size="13px" width="88px" fill="#323232" font-weight="400" align="middle" lineHeight="125%" anchor="middle" family="&quot;Microsoft YaHei&quot;, 微软雅黑, Arial" size="13px" weight="400" font-style="" opacity="1" y="16.375" transform="rotate(0)"><tspan id="SvgjsTspan1120" dy="16.25" x="54"><tspan id="SvgjsTspan1121" style="">click_stream</tspan></tspan></text></g></g><g id="SvgjsG1122"><path id="SvgjsPath1123" d="M700.1482558139535 230.08222591362124L742.6991279069767 230.08222591362124L742.6991279069767 200.08222591362124L783.3 200.08222591362124" stroke="#323232" stroke-width="1.5" fill="none" marker-end="url(#SvgjsMarker1124)"></path></g><g id="SvgjsG1126" transform="translate(170,71.58222591362124)"><path id="SvgjsPath1127" d="M 0 4Q 0 0 4 0L 127 0Q 131 0 131 4L 131 59Q 131 63 127 63L 4 63Q 0 63 0 59Z" stroke="rgba(33,41,48,1)" stroke-width="1.5" fill-opacity="1" fill="#ffffff"></path><g id="SvgjsG1128"><text id="SvgjsText1129" font-family="&quot;Microsoft YaHei&quot;, 微软雅黑, Arial" text-anchor="middle" font-size="13px" width="111px" fill="#323232" font-weight="400" align="middle" lineHeight="125%" anchor="middle" family="&quot;Microsoft YaHei&quot;, 微软雅黑, Arial" size="13px" weight="400" font-style="" opacity="1" y="20.875" transform="rotate(0)"><tspan id="SvgjsTspan1130" dy="16.25" x="65.5"><tspan id="SvgjsTspan1131" style="">E-Shop Pages</tspan></tspan></text></g></g><g id="SvgjsG1132" transform="translate(763.0930232558139,120.08222591362124)"><path id="SvgjsPath1133" d="M 0 0L 132 0L 132 53L 0 53Z" stroke="none" fill="none"></path><g id="SvgjsG1134"><text id="SvgjsText1135" font-family="&quot;Microsoft YaHei&quot;, 微软雅黑, Arial" text-anchor="middle" font-size="14px" width="132px" fill="#323232" font-weight="700" align="middle" lineHeight="125%" anchor="middle" family="&quot;Microsoft YaHei&quot;, 微软雅黑, Arial" size="14px" weight="700" font-style="" opacity="1" y="6.25" transform="rotate(0)"><tspan id="SvgjsTspan1136" dy="17.5" x="66"><tspan id="SvgjsTspan1137" style="">Source Tables (Raw </tspan></tspan><tspan id="SvgjsTspan1138" dy="17.5" x="66"><tspan id="SvgjsTspan1139" style="">Stream Data)</tspan></tspan></text></g></g><g id="SvgjsG1140" transform="translate(786,236.08222591362124)"><path id="SvgjsPath1141" d="M 0 0L 108 0L 108 54L 0 54Z" stroke="rgba(33,41,48,1)" stroke-width="1.5" fill-opacity="1" fill="#ffffff"></path><g id="SvgjsG1142"><text id="SvgjsText1143" font-family="&quot;Microsoft YaHei&quot;, 微软雅黑, Arial" text-anchor="middle" font-size="13px" width="88px" fill="#323232" font-weight="400" align="middle" lineHeight="125%" anchor="middle" family="&quot;Microsoft YaHei&quot;, 微软雅黑, Arial" size="13px" weight="400" font-style="" opacity="1" y="16.375" transform="rotate(0)"><tspan id="SvgjsTspan1144" dy="16.25" x="54"><tspan id="SvgjsTspan1145" style="">order_stream</tspan></tspan></text></g></g><g id="SvgjsG1146"><path id="SvgjsPath1147" d="M700.1482558139535 230.08222591362124L742.6991279069767 230.08222591362124L742.6991279069767 263.08222591362124L783.3 263.08222591362124" stroke="#323232" stroke-width="1.5" fill="none" marker-end="url(#SvgjsMarker1148)"></path></g><g id="SvgjsG1150" transform="translate(1013.75,168.08222591362124)"><path id="SvgjsPath1151" d="M 0 0L 169 0L 169 54L 0 54Z" stroke="rgba(33,41,48,1)" stroke-width="1.5" fill-opacity="1" fill="#ffffff"></path><g id="SvgjsG1152"><text id="SvgjsText1153" font-family="&quot;Microsoft YaHei&quot;, 微软雅黑, Arial" text-anchor="middle" font-size="13px" width="149px" fill="#323232" font-weight="400" align="middle" lineHeight="125%" anchor="middle" family="&quot;Microsoft YaHei&quot;, 微软雅黑, Arial" size="13px" weight="400" font-style="" opacity="1" y="16.375" transform="rotate(0)"><tspan id="SvgjsTspan1154" dy="16.25" x="84.5"><tspan id="SvgjsTspan1155" style="">click_behavior_stats</tspan></tspan></text></g></g><g id="SvgjsG1156" transform="translate(1272,69.08222591362124)"><path id="SvgjsPath1157" d="M 0 0L 134 0L 134 40L 0 40Z" stroke="none" fill="none"></path><g id="SvgjsG1158"><text id="SvgjsText1159" font-family="&quot;Microsoft YaHei&quot;, 微软雅黑, Arial" text-anchor="middle" font-size="14px" width="134px" fill="#323232" font-weight="700" align="middle" lineHeight="125%" anchor="middle" family="&quot;Microsoft YaHei&quot;, 微软雅黑, Arial" size="14px" weight="700" font-style="" opacity="1" y="8.25" transform="rotate(0)"><tspan id="SvgjsTspan1160" dy="17.5" x="67"><tspan id="SvgjsTspan1161" style="">Materialized Views </tspan></tspan></text></g></g><g id="SvgjsG1162" transform="translate(1013.75,236.08222591362124)"><path id="SvgjsPath1163" d="M 0 0L 169 0L 169 54L 0 54Z" stroke="rgba(33,41,48,1)" stroke-width="1.5" fill-opacity="1" fill="#ffffff"></path><g id="SvgjsG1164"><text id="SvgjsText1165" font-family="&quot;Microsoft YaHei&quot;, 微软雅黑, Arial" text-anchor="middle" font-size="13px" width="149px" fill="#323232" font-weight="400" align="middle" lineHeight="125%" anchor="middle" family="&quot;Microsoft YaHei&quot;, 微软雅黑, Arial" size="13px" weight="400" font-style="" opacity="1" y="16.375" transform="rotate(0)"><tspan id="SvgjsTspan1166" dy="16.25" x="84.5"><tspan id="SvgjsTspan1167" style="">order_behavior_stats</tspan></tspan></text></g></g><g id="SvgjsG1168"><path id="SvgjsPath1169" d="M894.75 200.08222591362124L953.875 200.08222591362124L953.875 195.08222591362124L1011.05 195.08222591362124" stroke="#323232" stroke-width="1.5" fill="none" marker-end="url(#SvgjsMarker1170)"></path><rect id="SvgjsRect1172" width="86" height="18" x="907.2014285714286" y="191.08222591362124" fill="#ffffff"></rect><text id="SvgjsText1173" font-family="&quot;Microsoft YaHei&quot;, 微软雅黑, Arial" text-anchor="middle" font-size="13px" width="86px" fill="#323232" font-weight="400" align="top" lineHeight="16px" anchor="middle" family="&quot;Microsoft YaHei&quot;, 微软雅黑, Arial" size="13px" weight="400" font-style="" opacity="1" y="188.45722591362124" transform="rotate(0)"><tspan id="SvgjsTspan1174" dy="16.25" x="950.2014285714286"><tspan id="SvgjsTspan1175" style="">Stats Features</tspan></tspan></text></g><g id="SvgjsG1176"><path id="SvgjsPath1177" d="M894.75 263.08222591362124L953.875 263.08222591362124L953.875 263.08222591362124L1011.05 263.08222591362124" stroke="#323232" stroke-width="1.5" fill="none" marker-end="url(#SvgjsMarker1178)"></path><rect id="SvgjsRect1180" width="86" height="18" x="904.9157142857143" y="254.08222591362124" fill="#ffffff"></rect><text id="SvgjsText1181" font-family="&quot;Microsoft YaHei&quot;, 微软雅黑, Arial" text-anchor="middle" font-size="13px" width="86px" fill="#323232" font-weight="400" align="top" lineHeight="16px" anchor="middle" family="&quot;Microsoft YaHei&quot;, 微软雅黑, Arial" size="13px" weight="400" font-style="" opacity="1" y="251.45722591362124" transform="rotate(0)"><tspan id="SvgjsTspan1182" dy="16.25" x="947.9157142857143"><tspan id="SvgjsTspan1183" style="">Stats Features</tspan></tspan></text></g><g id="SvgjsG1184" transform="translate(1048.25,119.08222591362124)"><path id="SvgjsPath1185" d="M 0 0L 100 0L 100 40L 0 40Z" stroke="none" fill="none"></path><g id="SvgjsG1186"><text id="SvgjsText1187" font-family="&quot;Microsoft YaHei&quot;, 微软雅黑, Arial" text-anchor="middle" font-size="13px" width="100px" fill="#323232" font-weight="700" align="middle" lineHeight="125%" anchor="middle" family="&quot;Microsoft YaHei&quot;, 微软雅黑, Arial" size="13px" weight="700" font-style="" opacity="1" y="9.375" transform="rotate(0)"><tspan id="SvgjsTspan1188" dy="16.25" x="50"><tspan id="SvgjsTspan1189" style="">Data Features</tspan></tspan></text></g></g><g id="SvgjsG1190" transform="translate(1265,119.08222591362124)"><path id="SvgjsPath1191" d="M 0 0L 100 0L 100 40L 0 40Z" stroke="none" fill="none"></path><g id="SvgjsG1192"><text id="SvgjsText1193" font-family="&quot;Microsoft YaHei&quot;, 微软雅黑, Arial" text-anchor="middle" font-size="13px" width="100px" fill="#323232" font-weight="700" align="middle" lineHeight="125%" anchor="middle" family="&quot;Microsoft YaHei&quot;, 微软雅黑, Arial" size="13px" weight="700" font-style="" opacity="1" y="9.375" transform="rotate(0)"><tspan id="SvgjsTspan1194" dy="16.25" x="50"><tspan id="SvgjsTspan1195" style="">Scores</tspan></tspan></text></g></g><g id="SvgjsG1196" transform="translate(1252.406976744186,168.08222591362124)"><path id="SvgjsPath1197" d="M 0 0L 134.5 0L 134.5 54L 0 54Z" stroke="rgba(33,41,48,1)" stroke-width="1.5" fill-opacity="1" fill="#ffffff"></path><g id="SvgjsG1198"><text id="SvgjsText1199" font-family="&quot;Microsoft YaHei&quot;, 微软雅黑, Arial" text-anchor="middle" font-size="13px" width="115px" fill="#323232" font-weight="400" align="middle" lineHeight="125%" anchor="middle" family="&quot;Microsoft YaHei&quot;, 微软雅黑, Arial" size="13px" weight="400" font-style="" opacity="1" y="16.375" transform="rotate(0)"><tspan id="SvgjsTspan1200" dy="16.25" x="67.5"><tspan id="SvgjsTspan1201" style="">behavior_scores</tspan></tspan></text></g></g><g id="SvgjsG1202" transform="translate(1252.406976744186,236.08222591362124)"><path id="SvgjsPath1203" d="M 0 0L 134.5 0L 134.5 54L 0 54Z" stroke="rgba(33,41,48,1)" stroke-width="1.5" fill-opacity="1" fill="#ffffff"></path><g id="SvgjsG1204"><text id="SvgjsText1205" font-family="&quot;Microsoft YaHei&quot;, 微软雅黑, Arial" text-anchor="middle" font-size="13px" width="115px" fill="#323232" font-weight="400" align="middle" lineHeight="125%" anchor="middle" family="&quot;Microsoft YaHei&quot;, 微软雅黑, Arial" size="13px" weight="400" font-style="" opacity="1" y="16.375" transform="rotate(0)"><tspan id="SvgjsTspan1206" dy="16.25" x="67.5"><tspan id="SvgjsTspan1207" style="">rfm_scores</tspan></tspan></text></g></g><g id="SvgjsG1208"><path id="SvgjsPath1209" d="M1183.5 195.08222591362124L1217.578488372093 195.08222591362124L1217.578488372093 195.08222591362124L1249.706976744186 195.08222591362124" stroke="#323232" stroke-width="1.5" fill="none" marker-end="url(#SvgjsMarker1210)"></path></g><g id="SvgjsG1212"><path id="SvgjsPath1213" d="M1183.5 263.08222591362124L1217.578488372093 263.08222591362124L1217.578488372093 263.08222591362124L1249.706976744186 263.08222591362124" stroke="#323232" stroke-width="1.5" fill="none" marker-end="url(#SvgjsMarker1214)"></path></g><g id="SvgjsG1216" transform="translate(1481.2122093023256,195.08222591362124)"><path id="SvgjsPath1217" d="M 0 0L 176 0L 176 70L 0 70Z" stroke="rgba(33,41,48,1)" stroke-width="1.5" fill-opacity="1" fill="#ffffff"></path><g id="SvgjsG1218"><text id="SvgjsText1219" font-family="&quot;Microsoft YaHei&quot;, 微软雅黑, Arial" text-anchor="middle" font-size="13px" width="156px" fill="#323232" font-weight="400" align="middle" lineHeight="125%" anchor="middle" family="&quot;Microsoft YaHei&quot;, 微软雅黑, Arial" size="13px" weight="400" font-style="" opacity="1" y="24.375" transform="rotate(0)"><tspan id="SvgjsTspan1220" dy="16.25" x="88"><tspan id="SvgjsTspan1221" style="">customer_segmentation</tspan></tspan></text></g></g><g id="SvgjsG1222"><path id="SvgjsPath1223" d="M1387.656976744186 195.08222591362124L1434.0595930232557 195.08222591362124L1434.0595930232557 230.08222591362124L1478.5122093023256 230.08222591362124" stroke="#323232" stroke-width="1.5" fill="none" marker-end="url(#SvgjsMarker1224)"></path></g><g id="SvgjsG1226"><path id="SvgjsPath1227" d="M1387.656976744186 263.08222591362124L1434.0595930232557 263.08222591362124L1434.0595930232557 230.08222591362124L1478.5122093023256 230.08222591362124" stroke="#323232" stroke-width="1.5" fill="none" marker-end="url(#SvgjsMarker1228)"></path><rect id="SvgjsRect1230" width="54" height="18" x="1417.2542586714771" y="221.08222591362124" fill="#ffffff"></rect><text id="SvgjsText1231" font-family="&quot;Microsoft YaHei&quot;, 微软雅黑, Arial" text-anchor="middle" font-size="13px" width="54px" fill="#323232" font-weight="400" align="top" lineHeight="16px" anchor="middle" family="&quot;Microsoft YaHei&quot;, 微软雅黑, Arial" size="13px" weight="400" font-style="" opacity="1" y="218.45722591362124" transform="rotate(0)"><tspan id="SvgjsTspan1232" dy="16.25" x="1444.2542586714771"><tspan id="SvgjsTspan1233" style="">segment</tspan></tspan></text></g><g id="SvgjsG1234" transform="translate(170,365.16445182724243)"><path id="SvgjsPath1235" d="M 0 0L 139 0L 139 83L 0 83Z" stroke="rgba(33,41,48,1)" stroke-width="1.5" fill-opacity="1" fill="#ffffff"></path><g id="SvgjsG1236"><text id="SvgjsText1237" font-family="&quot;Microsoft YaHei&quot;, 微软雅黑, Arial" text-anchor="middle" font-size="13px" width="119px" fill="#323232" font-weight="400" align="middle" lineHeight="125%" anchor="middle" family="&quot;Microsoft YaHei&quot;, 微软雅黑, Arial" size="13px" weight="400" font-style="" opacity="1" y="30.875" transform="rotate(0)"><tspan id="SvgjsTspan1238" dy="16.25" x="69.5"><tspan id="SvgjsTspan1239" style="">Visualization</tspan></tspan></text></g></g><g id="SvgjsG1240"><path id="SvgjsPath1241" d="M1569.2122093023256 265.83222591362124L1569.2122093023256 406.66445182724243L311.7 406.66445182724243" stroke="#323232" stroke-width="1.5" fill="none" marker-end="url(#SvgjsMarker1242)"></path></g><g id="SvgjsG1244"></g></svg>